<mxfile host="Electron" modified="2023-11-03T04:25:26.186Z" agent="Mozilla/5.0 (Windows NT 10.0; Win64; x64) AppleWebKit/537.36 (KHTML, like Gecko) draw.io/21.6.5 Chrome/114.0.5735.243 Electron/25.3.1 Safari/537.36" etag="S_e3SzVaPKq4V3C1gkas" version="21.6.5" type="device">
  <diagram name="Page-1" id="8zxPj7QCniECyPgtGkI5">
    <mxGraphModel dx="1855" dy="504" grid="1" gridSize="10" guides="1" tooltips="1" connect="1" arrows="1" fold="1" page="1" pageScale="1" pageWidth="850" pageHeight="1100" math="0" shadow="0">
      <root>
        <mxCell id="0" />
        <mxCell id="1" parent="0" />
        <mxCell id="VvnStDODfuSgFk2dotEg-33" style="edgeStyle=orthogonalEdgeStyle;rounded=0;orthogonalLoop=1;jettySize=auto;html=1;" edge="1" parent="1">
          <mxGeometry relative="1" as="geometry">
            <mxPoint x="580" y="367" as="targetPoint" />
            <mxPoint x="390" y="367" as="sourcePoint" />
          </mxGeometry>
        </mxCell>
        <mxCell id="VvnStDODfuSgFk2dotEg-7" value="" style="outlineConnect=0;dashed=0;verticalLabelPosition=bottom;verticalAlign=top;align=center;html=1;shape=mxgraph.aws3.route_53;fillColor=#F58536;gradientColor=none;" vertex="1" parent="1">
          <mxGeometry x="314.75" y="324" width="70.5" height="85.5" as="geometry" />
        </mxCell>
        <mxCell id="VvnStDODfuSgFk2dotEg-37" style="edgeStyle=orthogonalEdgeStyle;rounded=0;orthogonalLoop=1;jettySize=auto;html=1;" edge="1" parent="1">
          <mxGeometry relative="1" as="geometry">
            <mxPoint x="635" y="130" as="targetPoint" />
            <mxPoint x="634.75" y="310" as="sourcePoint" />
          </mxGeometry>
        </mxCell>
        <mxCell id="VvnStDODfuSgFk2dotEg-8" value="" style="outlineConnect=0;dashed=0;verticalLabelPosition=bottom;verticalAlign=top;align=center;html=1;shape=mxgraph.aws3.cloudfront;fillColor=#F58536;gradientColor=none;" vertex="1" parent="1">
          <mxGeometry x="596.75" y="324" width="76.5" height="93" as="geometry" />
        </mxCell>
        <mxCell id="VvnStDODfuSgFk2dotEg-10" value="" style="outlineConnect=0;dashed=0;verticalLabelPosition=bottom;verticalAlign=top;align=center;html=1;shape=mxgraph.aws3.s3;fillColor=#E05243;gradientColor=none;" vertex="1" parent="1">
          <mxGeometry x="2" y="160" width="68" height="60" as="geometry" />
        </mxCell>
        <mxCell id="VvnStDODfuSgFk2dotEg-31" value="" style="edgeStyle=orthogonalEdgeStyle;rounded=0;orthogonalLoop=1;jettySize=auto;html=1;" edge="1" parent="1" source="VvnStDODfuSgFk2dotEg-11">
          <mxGeometry relative="1" as="geometry">
            <mxPoint x="88" y="310" as="targetPoint" />
          </mxGeometry>
        </mxCell>
        <mxCell id="VvnStDODfuSgFk2dotEg-11" value="" style="dashed=0;outlineConnect=0;html=1;align=center;labelPosition=center;verticalLabelPosition=bottom;verticalAlign=top;shape=mxgraph.weblogos.github" vertex="1" parent="1">
          <mxGeometry x="50" width="75" height="75" as="geometry" />
        </mxCell>
        <mxCell id="VvnStDODfuSgFk2dotEg-12" value="&lt;b&gt;Github&amp;nbsp;&lt;/b&gt;" style="text;html=1;align=center;verticalAlign=middle;resizable=0;points=[];autosize=1;strokeColor=none;fillColor=none;" vertex="1" parent="1">
          <mxGeometry x="-10" y="0.9" width="70" height="30" as="geometry" />
        </mxCell>
        <mxCell id="VvnStDODfuSgFk2dotEg-32" style="edgeStyle=orthogonalEdgeStyle;rounded=0;orthogonalLoop=1;jettySize=auto;html=1;" edge="1" parent="1" source="VvnStDODfuSgFk2dotEg-9">
          <mxGeometry relative="1" as="geometry">
            <mxPoint x="310" y="363" as="targetPoint" />
          </mxGeometry>
        </mxCell>
        <mxCell id="VvnStDODfuSgFk2dotEg-9" value="" style="sketch=0;points=[[0,0,0],[0.25,0,0],[0.5,0,0],[0.75,0,0],[1,0,0],[0,1,0],[0.25,1,0],[0.5,1,0],[0.75,1,0],[1,1,0],[0,0.25,0],[0,0.5,0],[0,0.75,0],[1,0.25,0],[1,0.5,0],[1,0.75,0]];outlineConnect=0;fontColor=#232F3E;gradientColor=#F78E04;gradientDirection=north;fillColor=#D05C17;strokeColor=#ffffff;dashed=0;verticalLabelPosition=bottom;verticalAlign=top;align=center;html=1;fontSize=12;fontStyle=0;aspect=fixed;shape=mxgraph.aws4.resourceIcon;resIcon=mxgraph.aws4.ec2;" vertex="1" parent="1">
          <mxGeometry x="50" y="324" width="78" height="78" as="geometry" />
        </mxCell>
        <mxCell id="VvnStDODfuSgFk2dotEg-14" value="&lt;b&gt;Ubuntu server with &lt;br&gt;apache2 webserver&lt;/b&gt;" style="text;html=1;align=center;verticalAlign=middle;resizable=0;points=[];autosize=1;strokeColor=none;fillColor=none;" vertex="1" parent="1">
          <mxGeometry x="30" y="400" width="130" height="40" as="geometry" />
        </mxCell>
        <mxCell id="VvnStDODfuSgFk2dotEg-23" value="&lt;b&gt;Route 53&lt;/b&gt;" style="text;html=1;align=center;verticalAlign=middle;resizable=0;points=[];autosize=1;strokeColor=none;fillColor=none;" vertex="1" parent="1">
          <mxGeometry x="320" y="409.5" width="70" height="30" as="geometry" />
        </mxCell>
        <mxCell id="VvnStDODfuSgFk2dotEg-24" value="&lt;b&gt;Cloud Front&lt;/b&gt;" style="text;html=1;align=center;verticalAlign=middle;resizable=0;points=[];autosize=1;strokeColor=none;fillColor=none;" vertex="1" parent="1">
          <mxGeometry x="618.5" y="420" width="90" height="30" as="geometry" />
        </mxCell>
        <mxCell id="VvnStDODfuSgFk2dotEg-27" value="" style="outlineConnect=0;dashed=0;verticalLabelPosition=bottom;verticalAlign=top;align=center;html=1;shape=mxgraph.aws3.rds;fillColor=#2E73B8;gradientColor=none;" vertex="1" parent="1">
          <mxGeometry x="120" y="160" width="72" height="50" as="geometry" />
        </mxCell>
        <mxCell id="VvnStDODfuSgFk2dotEg-28" value="&lt;b&gt;HTML&lt;br&gt;CODE&lt;/b&gt;" style="ellipse;whiteSpace=wrap;html=1;aspect=fixed;" vertex="1" parent="1">
          <mxGeometry x="70" y="160" width="50" height="50" as="geometry" />
        </mxCell>
        <mxCell id="VvnStDODfuSgFk2dotEg-29" value="&lt;b&gt;S3 bucket&lt;/b&gt;" style="text;html=1;align=center;verticalAlign=middle;resizable=0;points=[];autosize=1;strokeColor=none;fillColor=none;" vertex="1" parent="1">
          <mxGeometry x="-10" y="128" width="80" height="30" as="geometry" />
        </mxCell>
        <mxCell id="VvnStDODfuSgFk2dotEg-30" value="&lt;b&gt;RDS&lt;/b&gt;" style="text;html=1;align=center;verticalAlign=middle;resizable=0;points=[];autosize=1;strokeColor=none;fillColor=none;" vertex="1" parent="1">
          <mxGeometry x="125" y="128" width="50" height="30" as="geometry" />
        </mxCell>
        <mxCell id="VvnStDODfuSgFk2dotEg-43" style="edgeStyle=orthogonalEdgeStyle;rounded=0;orthogonalLoop=1;jettySize=auto;html=1;" edge="1" parent="1" source="VvnStDODfuSgFk2dotEg-41">
          <mxGeometry relative="1" as="geometry">
            <mxPoint x="130" y="30" as="targetPoint" />
          </mxGeometry>
        </mxCell>
        <mxCell id="VvnStDODfuSgFk2dotEg-41" value="" style="outlineConnect=0;dashed=0;verticalLabelPosition=bottom;verticalAlign=top;align=center;html=1;shape=mxgraph.aws3.android;fillColor=#EE472A;gradientColor=none;" vertex="1" parent="1">
          <mxGeometry x="210" width="73.5" height="60" as="geometry" />
        </mxCell>
        <mxCell id="VvnStDODfuSgFk2dotEg-47" value="" style="shape=image;imageAspect=0;aspect=fixed;verticalLabelPosition=bottom;verticalAlign=top;image=https://media.istockphoto.com/id/153419998/vector/desktop-pc-computer-workstation.jpg?s=612x612&amp;w=0&amp;k=20&amp;c=tMJTqg6ivipk3FNUh95PwEZUGhySZPxohVd11D1U5fs=;" vertex="1" parent="1">
          <mxGeometry x="560" y="0.9" width="136.13" height="100" as="geometry" />
        </mxCell>
        <mxCell id="VvnStDODfuSgFk2dotEg-44" value="&lt;b&gt;&amp;nbsp;Developers send code to GitHub&lt;/b&gt;" style="text;html=1;align=center;verticalAlign=middle;resizable=0;points=[];autosize=1;strokeColor=none;fillColor=none;" vertex="1" parent="1">
          <mxGeometry x="141.75" y="60.9" width="210" height="30" as="geometry" />
        </mxCell>
        <mxCell id="VvnStDODfuSgFk2dotEg-50" value="" style="shape=image;imageAspect=0;aspect=fixed;verticalLabelPosition=bottom;verticalAlign=top;image=https://encrypted-tbn0.gstatic.com/images?q=tbn:ANd9GcRR-Q8pGmQOrJRcl1p6Mzs6iPWCr_Oa5VY8qw&amp;usqp=CAU;" vertex="1" parent="1">
          <mxGeometry x="810" y="8.850000000000001" width="69.46" height="84.1" as="geometry" />
        </mxCell>
        <mxCell id="VvnStDODfuSgFk2dotEg-51" value="&lt;b&gt;Users&lt;/b&gt;" style="text;html=1;align=center;verticalAlign=middle;resizable=0;points=[];autosize=1;strokeColor=none;fillColor=none;" vertex="1" parent="1">
          <mxGeometry x="820" y="108" width="60" height="30" as="geometry" />
        </mxCell>
        <mxCell id="VvnStDODfuSgFk2dotEg-52" value="" style="endArrow=classic;startArrow=classic;html=1;rounded=0;" edge="1" parent="1">
          <mxGeometry width="50" height="50" relative="1" as="geometry">
            <mxPoint x="800" y="30" as="sourcePoint" />
            <mxPoint x="720" y="30" as="targetPoint" />
            <Array as="points">
              <mxPoint x="750" y="30" />
            </Array>
          </mxGeometry>
        </mxCell>
        <mxCell id="VvnStDODfuSgFk2dotEg-53" value="&lt;b&gt;www.###.com&lt;/b&gt;" style="text;html=1;align=center;verticalAlign=middle;resizable=0;points=[];autosize=1;strokeColor=none;fillColor=none;" vertex="1" parent="1">
          <mxGeometry x="555" y="8.85" width="100" height="30" as="geometry" />
        </mxCell>
      </root>
    </mxGraphModel>
  </diagram>
</mxfile>
